<?xml version="1.0" encoding="iso-8859-1"?>
<!-- Generator: Adobe Illustrator 19.0.0, SVG Export Plug-In . SVG Version: 6.00 Build 0)  -->
<svg version="1.1" id="Capa_1" xmlns="http://www.w3.org/2000/svg" xmlns:xlink="http://www.w3.org/1999/xlink" x="0px" y="0px"
	 viewBox="0 0 512.001 512.001" style="enable-background:new 0 0 512.001 512.001;" xml:space="preserve">
<g>
	<g>
		<g>
			<polygon points="24.276,319.601 41.992,337.317 41.992,337.316 			"/>
			<path d="M41.992,337.317L4.497,374.81C1.617,377.689,0,381.595,0,385.666s1.617,7.976,4.497,10.855l44.637,44.637l-16.067,16.066
				c-5.995,5.995-5.995,15.715,0,21.71c2.998,2.998,6.927,4.496,10.855,4.496s7.858-1.498,10.855-4.497l16.067-16.067l44.637,44.637
				c2.879,2.879,6.783,4.497,10.855,4.497s7.977-1.618,10.855-4.497l37.494-37.494l17.715,17.715
				c0.002,0.002,0.004,0.003,0.005,0.005L41.992,337.317z"/>
		</g>
	</g>
</g>
<g>
	<g>
		<path d="M455.159,203.256L308.746,56.842l-21.71-21.71l-37.494,37.494c-5.995,5.995-5.995,15.715,0,21.71l73.207,73.207
			L167.544,322.748l-73.207-73.207c-5.994-5.996-15.715-5.994-21.71,0l-37.496,37.494l21.71,21.71L203.255,455.16l21.71,21.71
			l37.494-37.494c5.995-5.995,5.995-15.715,0-21.71l-73.207-73.207l155.205-155.205l73.207,73.207
			c2.998,2.999,6.927,4.497,10.855,4.497c3.928,0,7.858-1.499,10.855-4.497l37.495-37.494L455.159,203.256z"/>
	</g>
</g>
<g>
	<g>
		<path d="M507.504,115.482l-44.637-44.637l16.067-16.067c5.995-5.995,5.995-15.715,0-21.71c-5.994-5.994-15.715-5.995-21.71,0
			l-16.067,16.067L396.52,4.498c-2.879-2.879-6.783-4.497-10.856-4.497s-7.977,1.618-10.855,4.497l-37.494,37.494L319.6,24.277
			c-0.002-0.002-0.003-0.003-0.005-0.005l150.414,150.414l37.495-37.495c2.879-2.879,4.497-6.783,4.497-10.855
			S510.384,118.36,507.504,115.482z"/>
	</g>
</g>
<g>
</g>
<g>
</g>
<g>
</g>
<g>
</g>
<g>
</g>
<g>
</g>
<g>
</g>
<g>
</g>
<g>
</g>
<g>
</g>
<g>
</g>
<g>
</g>
<g>
</g>
<g>
</g>
<g>
</g>
</svg>
